<?xml version="1.0" encoding="UTF-8"?>
<svg id="_Слой_1" data-name="Слой_1" xmlns="http://www.w3.org/2000/svg" version="1.1" viewBox="0 0 595.28 57.47">
  <!-- Generator: Adobe Illustrator 29.6.1, SVG Export Plug-In . SVG Version: 2.1.1 Build 9)  -->
  <path d="M515.04,17.75l-.97,4.87c1.52,1.27,15.5-12.93,11.98-.98l9.98-2.93-.99,6.86c9.57-1.62,18.78-4.64,27.5-8.82l1.97,2.97c-1.27,1.98-26.98,9.95-30.07,9.72-2.42-.18-3.08-2.83-3.42-4.85l-17.65,9.69-3.61-2.71-13.21,6.76c-6.39-1.53.94-7.53.55-7.84l-12.97,3.91,2.98-8.34c.6-1.86-11.43,3.26-12.58,3.38-3.88.39-7.07-1.5-10.64-.74-2.65.57-4.26,3.7-6.19,3.73-1.46.03-3.21-1.63-5.07-1.91-8.62-1.28-13.35,5.85-15.91,5.88-4.98.04.42-6.98-2.98-5.91-5.81,1.83-11.93,7.23-18.99,7.84-6.7.58,1.36-7.81.5-8.83-5.68,1.95-12.3,5.86-17.95,7.36-7.05,1.88-4.75-.26-4.01-5.4-5.67.85-9.76,7.45-15.96,4.89l5.48-6.87-23.93,8.84-1.4-2.31,4.36-6.53-15.02,5.91-2.93-2.96-14.84,6.69-2.62-2.28,3.98-4.4-10.39,2.89-1.47-2.27,2.87-4.55-26.47,9.77c-3.92-3.17,2.26-7.78,4.5-10.27-6.14-.92-15.8,4.31-21.6,4.4-2.23.04-3.19-1.74-4.67-1.74-3.01,0-17.16,7.86-19.6,5.61l-.53-2.86-12.01,4.57c-2.37-1.03-2.62-2.42-1.48-4.57l-10.46,3.92-1.54-2.46,2.5-2.45c1.45-.95.14-1.12-.9-.92-4.18.8-22.45,8.07-24.01,7.79l-1.38-2.28,2.85-5.56-21.4,6.82c-4.15-3.03,1.3-5.84,3.42-8.3.15-.75-.92-.6-1.5-.5-8.06,1.38-19.34,9.1-27.93,10.81-2.78-5.31,6.76-6.24,8.47-10.79-7.67-.59-19.39,9.5-25.44,9.83-1.57.08-1.73.14-1.51-1.49l5.97-5.91-1.47-1.44-24.47,9.79c-1.82-2.34,8.26-9.39,7.47-12.76l-33.05,14.62c-2.2.64-1.56-1.62-.88-2.84,1.86-3.32,8.68-6.63,9.97-10.8-7.95,1.84-21.86,12.81-28.95,13.75-2.04.27-1.97-1.3-1.46-2.43.71-1.56,7.51-4.3,7.44-7.4l-19.96,10.77c-3.77-2.67,1.95-5.1,3.5-7.34.16-.74-.97-.63-1.47-.47-2.59.82-14.46,10.64-16.49,8.81l5.48-9.81-14.14,6.73-2.21-1.42c-.19-.62,2.25-3.18-.59-2.35-2.3.68-10.88,7.26-12.49,5.87-.43-2.01,1.02-2.28,2.3-3.13,8.12-5.39,18.06-9.29,25.18-16.47l2.45,1.46-6.97,8.33,13.97-4.89-3.48,7.85,17.98-10.78c4.37.56-1.11,4.8-2.03,5.86-.67.77-2.6,1.98-.99,2.95l22.46-11.76c1.97,2.08-6.85,8.71-7.98,10.3-.16.74.96.63,1.47.47,6.57-2.02,19.31-11.43,25.96-11.79,1.57-.08,1.73-.14,1.51,1.49l-11.97,12.26,29.45-12.76c2.06-.36,1.73.82,1.31,2.28-.85,3.01-3.46,6.89-5.8,9.02-.14.75.92.6,1.5.5,6.6-1.13,17.09-9,22.96-9.83,3.67-.52-.15,5.72-1.49,6.39l24.95-7.36c.34,3.17-1.79,5.38-3.98,7.36-.16.74.96.63,1.47.47,6.42-1.99,18.98-9.49,24.96-9.83,1.48-.08,1.83-.09,1.53,1.52-.55,3.02-5.66,5.35-7,8.32,4.87.42,18.08-6.94,21.48-6.51.96.12,1.69,1.49,2.46,2.11l-4.97,4.91,35.91-10.27.03,2.91,8.98-1.96-1.99,4.89c1.33,1.03,7.84-4.86,11.36-3.84,3.36.98.18,3.19.13,4.84l15.94-6.88c2.68,1.57.6,2.96,1.03,4.92l22.8-4.83,1.69,2.36-5.03,5.89c-.15.75.92.6,1.5.5,4.51-.77,23.71-10.24,25.88-9.78,3.2.68.79,5.26-1.42,6.34,3.71,1.75,14.93-6.78,17.5-3.44,1.05,1.36-2.12,3.37.95,2.93l10.06-4.89,2.36,1.54-.43,3.36,17.47-5.87c.52,5.17-6.13,5.74-7.98,9.79,3.83-.08,20.92-8.71,22.96-6.85l-1.99,4.89c4.32-1.67,6.71-.52,8.07,3.9l26.35-10.76,1.55,2.46-5.02,6.86c-.16.74.96.63,1.47.47,4.04-1.25,18.85-10.83,21.03-10.78l2.39,1.61-.93,4.28c4.66-2.17,9.69.19,13.42-.03,2.43-.14,5.22-2.73,8.11-2.84,2.61-.1,4.93,1.62,7.55,1.37,3.41-.32,20.31-7.85,21.82-6.34,1.87,1.85-5.67,9.04-1.51,7.83,5.07-1.48,12.57-7.59,17.8-9.06,1.54-.43,2.21-.1,3.66.28Z"/>
</svg>