<?xml version="1.0" encoding="UTF-8"?>
<svg id="_Слой_1" xmlns="http://www.w3.org/2000/svg" version="1.1" viewBox="0 0 841.89 292.83">
  <!-- Generator: Adobe Illustrator 29.6.1, SVG Export Plug-In . SVG Version: 2.1.1 Build 9)  -->
  <defs>
    <style>
      .st0 {
        font-family: FornireLight, Fornire;
        font-size: 238px;
      }

      .st1 {
        fill-rule: evenodd;
      }
    </style>
  </defs>
  <text class="st0" transform="translate(15.16 194.41)"><tspan x="0" y="0">БелЖывапiс</tspan></text>
  <polygon class="st1" points="331.08 232.43 342.88 232.43 342.88 281.03 336.28 281.03 336.28 238.12 320.66 281.03 309.55 281.03 293.93 238.12 293.93 281.03 287.33 281.03 287.33 232.43 299.13 232.43 315.1 276.24 315.11 276.24 331.08 232.43"/>
  <rect x="365.1" y="232.43" width="6.6" height="48.6"/>
  <polygon class="st1" points="427.59 232.43 434.19 232.43 434.19 281.03 427.59 281.03 427.59 259.51 400.51 259.51 400.51 281.03 393.91 281.03 393.91 232.43 400.51 232.43 400.51 253.26 427.59 253.26 427.59 232.43"/>
  <path class="st1" d="M494.52,265.56l6.88.97c-1.67,5-4.54,8.9-8.61,11.7s-8.91,4.2-14.51,4.2c-7.45,0-13.48-2.37-18.09-7.12-4.61-4.74-6.91-10.96-6.91-18.64s2.3-13.88,6.91-18.57c4.6-4.7,10.63-7.05,18.09-7.05h0c5.14-.01,9.56,1.17,13.26,3.53,3.7,2.36,6.5,5.79,8.4,10.28l-6.88.97c-2.59-5.23-6.9-7.85-12.91-7.85h-3.75c-4.63,0-8.39,1.41-11.28,4.24-2.89,2.82-4.34,6.5-4.34,11.04v6.95c0,4.54,1.45,8.22,4.34,11.04,2.89,2.82,6.65,4.24,11.28,4.24h3.75c3.52,0,6.56-.88,9.13-2.64,2.57-1.76,4.31-4.19,5.24-7.29Z"/>
  <polygon class="st1" points="560.07 281.03 551.39 281.03 533.82 259.09 530.83 262.14 526.38 262.14 526.38 281.03 519.78 281.03 519.78 232.43 526.38 232.43 526.38 257.77 526.4 257.77 551.05 232.43 559.73 232.43 536.12 256.73 540.63 256.73 560.07 281.03"/>
</svg>