<?xml version="1.0" encoding="UTF-8"?>
<svg id="_Слой_1" data-name="Слой_1" xmlns="http://www.w3.org/2000/svg" version="1.1" viewBox="0 0 841.89 292.83">
  <!-- Generator: Adobe Illustrator 29.6.1, SVG Export Plug-In . SVG Version: 2.1.1 Build 9)  -->
  <defs>
    <style>
      .st0 {
        fill: #292929;
        fill-rule: evenodd;
      }
    </style>
  </defs>
  <path class="st0" d="M812.89,189.14c11.74,0,19.27-12.08,19.27-32.49h2.36c0,25.92-8.05,41.99-27.19,41.99s-32.32-23.18-32.32-56.05,15.88-56.62,34.96-56.62c26.07,0,21.83,42.71,10.33,42.71-5.03,0-9.13-4.28-9.13-9.5,0-3.23,5-5.37,9.13-9.5,3.42-3.43,7.49-18.95-8.86-18.95s-22.17,28.03-22.17,51.87,7.82,46.55,23.63,46.55ZM723.21,193.03c9.12,0,16.53-7.41,16.53-16.53v-70.75c0-6.77-7.41-14.18-16.53-14.18v-2.38c16.55,0,30.78-3.23,30.78-3.23v90.54c0,9.12,7.41,16.53,16.53,16.53v2.38h-47.32v-2.38ZM746.87,53.77c-5.25,0-9.5-4.25-9.5-9.5s4.25-9.5,9.5-9.5,9.5,4.25,9.5,9.5-4.25,9.5-9.5,9.5ZM677.34,193.08c9.12,0,13.2-7.41,13.2-16.53v-82.61h-34.31v82.61c0,9.12,4.08,16.53,13.2,16.53v2.38h-43.99v-2.38c9.12,0,16.53-7.41,16.53-16.53v-87.36h62.81v87.36c0,9.12,7.41,16.53,16.53,16.53v2.38h-43.99v-2.38ZM606.61,108.1v68.4c0,9.12,8.59,16.53,16.53,16.53v2.38l-24.44.03-6.35-8.94s-1.03,1.7-2.74,3.84c-.57.71-1.22,1.47-1.93,2.23-2.85,3.04-6.74,6.07-10.91,6.07-17.29,0-34.3-21.19-34.3-54.06,0-29.17,20.39-55.39,43.57-55.39h37.09v2.38c-7.95,0-16.53,7.41-16.54,16.53ZM592.37,93.94h-6.39c-20.2,0-29.23,27.46-29.23,50.64s5.52,49.31,21.4,49.31c8.09,0,14.23-15.63,14.23-15.62v-84.33ZM524.55,150.6c3.08,2.16,5.6,4.72,7.34,7.7,1.76,2.98,2.74,6.36,2.74,10.16,0,16.85-23.34,26.96-47.11,26.96h-33.54v-1.37c8.16,0,14.77-4.28,14.77-9.56v-84.36c0-.66-.1-1.31-.3-1.93-.39-1.24-1.16-2.4-2.22-3.42-.53-.51-1.14-.98-1.81-1.41-1.33-.86-2.93-1.57-4.69-2.05-1.77-.49-3.7-.75-5.75-.75v-1.38h33.53c23.77,0,47.11,10.1,47.11,26.96,0,5.71-2.2,10.46-5.91,14.31-2.46,2.56-5.6,4.72-9.18,6.49-1.79.88-3.7,1.66-5.68,2.35-3.98,1.39-8.3,2.38-12.76,2.99,8.92,1.23,17.3,3.97,23.46,8.3ZM512.82,133.29c2.46-2.2,4.36-4.81,5.63-7.71,1.27-2.9,1.94-6.08,1.94-9.43,0-13.4-9.7-22.21-30.41-22.21h-6.97v46.44h6.97c10.36,0,17.92-2.7,22.84-7.09ZM489.98,144.22h-6.97v46.49h6.97c10.36,0,17.92-.73,22.84-5.13,4.92-4.39,7.56-10.43,7.57-17.14,0-13.4-9.7-24.22-30.41-24.22ZM478.28,231.04c5.14,0,9.56,1.18,13.26,3.54,3.7,2.36,6.5,5.79,8.4,10.28l-6.88.97c-2.59-5.23-6.9-7.85-12.91-7.85h-3.75c-4.63,0-8.39,1.41-11.28,4.24-2.89,2.82-4.34,6.5-4.34,11.04v6.95c0,4.54,1.45,8.22,4.34,11.04,2.89,2.82,6.65,4.24,11.28,4.24h3.75c3.52,0,6.56-.88,9.13-2.64,2.57-1.76,4.31-4.19,5.24-7.29l6.88.97c-1.67,5-4.54,8.9-8.61,11.7-4.07,2.8-8.91,4.2-14.51,4.2-7.45,0-13.48-2.37-18.09-7.12-4.61-4.74-6.91-10.96-6.91-18.64s2.3-13.88,6.91-18.57c4.6-4.7,10.63-7.05,18.09-7.05ZM405.78,195.46h-10.17c-13.59,0-25.84-8.36-30.69-21.09l-17.39-45.79v66.89h-4.75v-79.43l-21.95,58.24c-4.75,12.73-17.01,21.19-30.69,21.19h-4.75v-2.38c7.69,0,12.73-2.38,18.72-6.56,6.08-4.18,10.92-10.16,13.68-17.39l22.52-59.66-29.64-78c-3.99-10.45-14.06-17.39-25.27-17.39v-2.38h10.17c13.59,0,25.84,8.36,30.69,21.09l17.39,45.8V11.71h4.75v79.43l21.95-58.24c4.75-12.73,17.01-21.19,30.69-21.19h4.75v2.38c-7.69,0-12.73,2.38-18.72,6.55-6.08,4.18-10.92,10.17-13.68,17.39l-22.52,59.67,29.64,78c3.85,10.07,13.35,16.86,24.07,17.34,9.12,0,16.53-7.41,16.53-16.53v-70.75c0-6.77-7.41-14.18-16.53-14.18v-2.38c16.55,0,30.78-3.23,30.78-3.23v90.54c0,9.12,7.41,16.53,16.53,16.53v2.38h-46.1v.05ZM428.22,53.77c-5.25,0-9.5-4.25-9.5-9.5s4.25-9.5,9.5-9.5,9.5,4.25,9.5,9.5-4.25,9.5-9.5,9.5ZM236.38,193.08c9.12,0,16.53-7.41,16.53-16.53v-82.61h-28.9l-9.23,84.13c-1.33,11.69-10.13,20.62-20.52,20.62-14.63,0-15.86-9.6-15.86-21h2.38c0,10.17,1.8,16.25,5.99,16.25,3.7,0,6.71-1.13,8.99-3.47,2.28-2.34,3.83-5.88,4.6-10.69l9.42-90.59h57.4v87.36h0c0,9.12,7.41,16.53,16.53,16.53v2.38h-47.32v-2.38ZM151.79,189.14c1.46,0,2.87-.24,4.21-.68,2.68-.89,5.07-2.62,7.13-5,1.04-1.19,1.98-2.54,2.83-4.02,3.42-5.94,5.37-14.06,5.37-22.79h2.38c0,22.9-8.32,41.99-27.47,41.99s-34.43-23.18-34.43-56.05,13.44-56.62,32.58-56.62c12.43,0,27.93,10.16,27.93,53.49h-44.04s-.03.03-.05.05c-.5,24.49,10.24,49.64,23.55,49.64ZM157.08,134.7c-.23-34.77-6.07-43.99-11.69-43.99-10.46,0-15.72,22.23-16.95,43.99h28.64ZM50.65,100.26c30.21,0,50.26,22.23,50.26,48.55,0,29.17-23.75,46.65-50.35,46.65H10.09v-2.38c9.12,0,16.53-7.41,16.53-16.53V30.62c0-9.21-7.41-16.53-16.53-16.53v-2.38h66.31c18.72-.19,18.81-3.23,18.81-3.23h2.28v77.91h-4.75s-.09-69.92-17.76-69.92h-34.11v83.8h9.79ZM40.87,190.71h9.79c11.59,0,22.42-4.66,27.93-12.26h0c5.51-7.6,8.08-18.05,8.08-29.64,0-23.18-12.83-41.9-36.01-41.9h-9.79v83.8ZM315.11,276.24l15.97-43.81h11.8v48.6h-6.6v-42.91l-15.62,42.91h-11.11l-15.62-42.91v42.91h-6.6v-48.6h11.8l15.97,43.81ZM371.7,281.03h-6.6v-48.6h6.6v48.6ZM400.51,253.26h27.08v-20.83h6.6v48.6h-6.6v-21.52h-27.08v21.52h-6.6v-48.6h6.6v20.83ZM526.4,257.77l24.65-25.34h8.68l-23.61,24.3h4.51l19.44,24.3h-8.68l-17.57-21.94-2.99,3.05h-4.45v18.89h-6.6v-48.6h6.6v25.34Z"/>
</svg>