<?xml version="1.0" encoding="UTF-8"?>
<svg xmlns="http://www.w3.org/2000/svg" version="1.1" viewBox="0 0 256 256">
  <!-- Generator: Adobe Illustrator 29.6.1, SVG Export Plug-In . SVG Version: 2.1.1 Build 9)  -->
  <defs>
    <style>
      .st0 {
        display: none;
      }
    </style>
  </defs>
  <g id="_Слой_1" data-name="Слой_1" class="st0">
    <path d="M206.22,182.1H52.24c-9.03,0-16.35-7.32-16.35-16.35v-5.7c0-9.03,7.32-16.35,16.35-16.35h153.98c4.34,0,8.5,1.72,11.56,4.78,3.07,3.07,4.79,7.23,4.79,11.56v5.7c0,9.03-7.32,16.35-16.35,16.35ZM204.99,117.27H51.01c-9.03,0-16.35-7.32-16.35-16.35v-5.7c0-9.03,7.32-16.35,16.35-16.35h153.98c9.03,0,16.35,7.32,16.35,16.35v5.7c0,9.03-7.32,16.35-16.35,16.35Z"/>
  </g>
  <g id="_Слой_2" data-name="Слой_2">
    <path d="M231.6,213.75l-49.75-49.75c26.09-34.87,23.28-84.51-8.42-116.21-34.78-34.78-91.17-34.78-125.95,0s-34.78,91.17,0,125.95c31.91,31.91,82,34.54,116.91,7.89l49.67,49.67c4.01,4.01,10.51,4.01,14.52,0l3.02-3.02c4.01-4.01,4.01-10.51,0-14.52ZM63.5,157.71c-25.93-25.93-25.94-67.97,0-93.9,25.93-25.93,67.97-25.93,93.9,0,22.83,22.83,25.56,58.13,8.2,83.94-2.35,3.51-5.09,6.86-8.2,9.96-2.89,2.89-5.98,5.46-9.23,7.7-25.87,17.91-61.64,15.34-84.68-7.7Z"/>
  </g>
</svg>