<?xml version="1.0" encoding="UTF-8"?>
<svg id="_Слой_1" data-name="Слой_1" xmlns="http://www.w3.org/2000/svg" version="1.1" viewBox="0 0 256 256">
  <!-- Generator: Adobe Illustrator 29.6.1, SVG Export Plug-In . SVG Version: 2.1.1 Build 9)  -->
  <path d="M206.22,182.1H52.24c-9.03,0-16.35-7.32-16.35-16.35v-5.7c0-9.03,7.32-16.35,16.35-16.35h153.98c4.34,0,8.5,1.72,11.56,4.78,3.07,3.07,4.79,7.23,4.79,11.56v5.7c0,9.03-7.32,16.35-16.35,16.35ZM204.99,117.27H51.01c-9.03,0-16.35-7.32-16.35-16.35v-5.7c0-9.03,7.32-16.35,16.35-16.35h153.98c9.03,0,16.35,7.32,16.35,16.35v5.7c0,9.03-7.32,16.35-16.35,16.35Z"/>
</svg>