<?xml version="1.0" encoding="UTF-8"?>
<svg id="_Слой_1" data-name="Слой_1" xmlns="http://www.w3.org/2000/svg" version="1.1" viewBox="0 0 960 960">
  <!-- Generator: Adobe Illustrator 29.6.1, SVG Export Plug-In . SVG Version: 2.1.1 Build 9)  -->
  <path d="M501.63,499.55c3.07-1.34,7.06-6.44,9.66-9.3,10.44-12.52,19.37-24.92,28.65-38.73,2.75-4.2,5.58-8.54,7.59-13.07,2.16-4.8,3.03-9.34,4.85-14.36,1.57-4.82,6.51-13.77,11.82-11.02,3.71,3.97-1.22,11.86-3.14,16.34-3.27,7.23-4.36,14.53-4.8,21.99-.55,11.49-.76,22.47-2.61,33.71-3.38,18.21-7.55,45.97-24.88,53.89-5.66,2.55-12.52,2.34-16.86-2.2-5.87-5.46-4.48-16.84,1.36-21.15,4.03-2.87,4.83.52,3.61,4.3-1.13,3.89-4.2,12.68,3.27,10.1,16.7-9.23,22.79-51.66,25.44-70.39-.12-6.82-7.39,5.27-8.71,7.05-2.56,3.82-5.02,7.33-7.6,10.84-5.08,6.89-10.12,13.45-15.41,20.04-3.66,4.44-7.63,9.32-12.28,12.76-5.14,3.71-10.19,5.05-14.38,9.32-2.08,2.01-3.83,4.51-5.45,6.94-3.47,5.26-7.21,10.29-12.12,15.65-4.52,4.65-9.45,10.61-15.94,12.01-7.38,1.27-11.54-7.44-11.64-14.11-.42-3.79,1.3-12.09.48-14.25-1.55-2.96-8.18,7.7-9.66,9.34-6.18,8.2-13.18,17.18-20.22,24.77-14.14,16.26-22.37,4.07-18.84-13.08,2.81-12.52,3.42-18.91-5.79-5.72-4.72,6.97-8.92,12.95-14.86,20.26-4.7,5.58-9.52,12.01-15.21,16.44-4.9,3.75-9.92,2.11-11.86-4.54-2.31-5.97.41-16.9.5-21.94-.29-6.08-9.46,8.23-10.91,9.55-11.22,13.25-23.36,29.64-38.66,37.94-9.68,4.28-16.45-4.93-17.15-14.04-1.96-28.48,31.05-86.96,56.29-98.96,6.87-3.04,15.99-.62,17.45,7.43,1.27,7.33-3.09,14.84-6.7,21-8.66,13.69-19.94,26.61-33.02,36.56-8.98,6.37-18.22,10.56-21.87,21.94-2.91,7.32-5.64,22.86,6.81,15.58,3.11-1.83,6.04-4.3,8.76-6.75,14.74-13.44,30.81-33.12,43.35-50.56,15.76-20.87,24.73-48.77,48.84-62.08,12.28-7.33,21.73,2.61,28.74-11.38,16.78-34.35,36.92-75.11,63.76-101.73,3.9-3.72,10.58-6.9,14.94-2.85,4.33,4.2,2.28,12.28,0,17.66-16.23,36.55-41.42,71.01-65.08,103.81-7.88,10.64-16.35,20.44-22.82,31.94-6.87,12.48-11.76,26.11-16.06,39.66-7.77,28.04,21.35-11.66,25.68-16.71,10-13.01,20.03-25.83,27.31-40.5,5-10,9.96-18.78,17.71-27.62,8.66-9.64,23.69-24.83,37.56-18.07,2.63,1.58,4.11,3.2,2.94,4.72-.58.68-1.8,1.21-3.4,1.71-3.45.99-8.26,2.29-11.58,4.77-20.38,14.38-45.02,61.53-48.11,86.56,1.63,14.94,25.97-19.41,28.41-23.37,6.36-9.12,7.52-19.57,11.86-29.85,3.28-6.82,9.61-23.05,16.97-24.87,2.99-.71,5.43.8,5.58,4.03.25,3.53-2.49,8.69-5.45,14.85-1.71,3.56-3.56,7.36-5.23,10.87-1.23,2.4-3.15,7.28-1.98,6.87h.04ZM434.06,474.06c1.77-1.1,4.88-5.13,6.7-7.49,6.6-8.93,12.76-18.22,19.15-27.3,14.64-21.1,29.13-43.01,40.33-66.05,1.08-2.46,2.15-4.65,2.21-7.09-.4-3.43-5.42,2.09-6.86,3.71-13.19,15.91-23.77,33.82-34.53,51.53-4.28,6.96-7.94,13.06-11.56,20.34-4.19,8.28-10.59,20.65-14.54,28.59-1.3,2.73-1.65,4.05-.96,3.78l.04-.02ZM416.32,473.12c-1.76-.78-4.54.05-7.24,1.75-3.11,1.94-6.21,4.71-9.28,7.96-13.63,14.95-23.8,33.64-32.86,51.4-1.62,2.92-20.62,42.31-7.44,32.46,9.59-9.01,71.27-85.26,56.93-93.52l-.1-.04ZM311.63,545.56c10.97-9.95,39.12-37.06,38.75-51.92-2.47-8.97-19.39,12.73-22.08,15.81-2.08,2.56-4.1,5.16-6.07,7.78-3.59,4.11-31.02,45.57-10.75,28.47l.16-.14Z"/>
  <path d="M746.21,577.27c-22.83,11.98-45.14,23.19-68.27,34.58-41.17,19.51-73.6,32.31-116.79,48.9-27.95,11.01-56.59,20.9-85.95,27.55-21.47,4.85-84.49,16.73-81.03-14.76,1.35-9.12,9.24-20.31,20.88-31.36,22.59-21.32,52.86-38.89,80.47-54.45,86.73-47.96,179.61-94.44,277.21-110.84,24.1-4.32,82.8-8.14,61.56,30.73-18.37,29.8-57.68,52.71-87.93,69.58l-.16.09ZM813.41,479.52c-28.2-3.61-67.96,10.83-100.16,20.81-86.94,30.2-221.79,82.94-286.67,146.36-9.35,10.47-17.72,21.45-16.23,33.03,1.22,7.96,11.54,11.31,21.75,10.83,83.07-4.45,421.46-152.26,395.4-204.04-2.6-3.53-7.43-5.9-13.99-6.97l-.1-.02Z"/>
  <path d="M180.49,733.53c-2.87-2.94-.85-10.47.02-14.74,1.35-5.65,3.17-11.45,4.94-17.12,9.4-29.91,18.81-60.13,29.93-89.62,1.77-4.63,3.97-9.51,5.48-14.21,1.27-4.07,1.97-8.54-2.06-10.84-3.44-2.04-8.88-4.34-8.94-9.27-.28-6.29,6.59-8.62,11.22-11.08,5.98-3.19,11.94-8.32,16.35-13.73,4.8-6.07,7.22-13.47,10.34-20.43,25.94-57.44,51.85-116.5,93.43-164.65,6.9-7.2,17.61-18.82,26.64-8.99,5,6.79,1.16,15.72-1.51,23.09-1.72,4.46-3.66,8.86-5.67,13.12-24.46,50.4-57.94,97.41-94.26,140.02-6.05,6.97-13.15,13.68-17.56,21.87-3.95,6.46-3.35,11.78,0,18.11.74,1.88,2.78,5.14-.14,5.79-2.15.56-5.99-.45-8.87,1.63-2.27,1.62-3.65,4.01-5.14,6.91-5.33,11.18-9.35,22.45-13.59,33.98-6.46,18.96-14.23,37.08-20.88,55.86-3.4,9.89-6.34,19.67-8.95,29.79-1.69,5.11-5.26,25.71-10.72,24.52l-.06-.04ZM261.18,530.73c1.33.19,5.07-4.2,6.63-5.94,33.33-39.68,63.67-84.67,86.88-130.75,3.79-8.16,8.84-17.28,9.76-26.13-.4-7.6-9.83,3.09-12.13,5.63-34.77,42.14-59.77,91.37-83.74,140.19-2,4.04-4.44,8.45-6.37,12.65-1.06,2.38-1.53,4.03-1.08,4.33l.03.02Z"/>
  <path d="M845.15,331.68c-6.26,2.89-13.87,4.76-20.56,6.97-32.56,10.74-65.05,22.91-95.77,38.38-6.13,3.56-10.89,8.44-14.1,14.74-3.08,5.9-4.86,12.45-7.38,18.63-9.39,22.72-21.79,44.97-35.7,65.33-5.56,7.21-15.46,23.64-25.03,23.88-11.58-1.34-8.23-20.59-6.11-28.85.21-2.42,7.01-21.34-.13-15.11-2.76,2.2-7.41,7.58-12.06,11.95-2.84,2.71-5.8,5.29-8.7,7.92-6.43,5.72-11.79,11.5-17.14,19-5.93,8.11-11.81,17.01-19.11,23.03-13.45,10.78-22.64-1.59-21.47-15.64,2.59-26.53,15.97-55.17,33.6-75.03,8.21-9.3,23.21-21.56,35.55-14.91,2.86,2.48-2.11,5.23-4.58,6.67-3.34,1.88-7.48,3.85-10.92,6.78-18.14,17.03-30.62,42.95-39.64,65.97-9.81,27.05,1.69,24.68,15.84,5.86,3.32-4.26,6.53-8.62,9.14-13.34,8.36-14.98,10.19-35.52,21.97-48.42,6.14-6.37,9.9-2.28,8.65,5.41-.41,3.35-1.78,7.81-2.54,10.76-.74,2.97-.27,3.96,1.54,2.74,3.5-2.56,7.71-7.87,12.22-13.5,3.54-4.46,6.93-8.96,9.93-13.8,3.62-5.54,8.12-15.71,14.33-16.4,1.5-.01,2.67,1.01,3.35,2.89,1.84,5.72-.54,12.93-2.74,18.54-5.43,13.76-11.33,27.45-15.95,41.47-1.1,3.5-2.5,8.03-2.31,11.36.79,6.7,9.06-3.76,11.03-6.15,13.91-17.87,25.96-39.14,35.12-59.37,2.4-5.41,4.76-11.03,6.49-16.69,2.93-8.97,2.36-19.45,9.37-26.25,4.05-3.94,10.7-6.42,16.17-8.51,5.5-2.11,10.96-4.44,16.41-6.51,7.78-2.76,16.24-5.54,23.41-8.56,19.88-9.01,40.92-16.05,61.92-21.46,4.27-1.1,8.84-2.25,13.11-2.78,3.52-.45,5.86-.37,6.33.19l.02.02c.43.62-.92,1.56-3.56,2.79Z"/>
</svg>